# xmcd
#
# Track frame offsets:
#	150
#	10320
#	19538
#	28223
#	37486
#	48001
#	58299
#	70434
#	80987
#	92710
#	102483
#	112173
#
# Disc length: 1645 seconds
#
# Revision: 1
# Processed by: cddbd v1.5.2PL0 Copyright (c) Steve Scherf et al.
# Submitted via: audiograbber 1.83.01
#
DISCID=af066b0c
DTITLE=Webb Pierce - Memory # 1
DYEAR=1965
DGENRE=Country
TTITLE0=That's Where My Money Goes
TTITLE1=Leavin' On Your Mind
TTITLE2=Waiting A Lifetime
TTITLE3=Invisible Tears
TTITLE4=French Riviera
TTITLE5=Love Come To Me
TTITLE6=Broken Engagement
TTITLE7=Here I Am Drunk Again
TTITLE8=With You By My Side
TTITLE9=I'm Gonna Hang One On Tonight
TTITLE10=As Long As I'll Forgive 
TTITLE11=Memory # 1
EXTD=
EXTT0=
EXTT1=
EXTT2=
EXTT3=
EXTT4=
EXTT5=
EXTT6=
EXTT7=
EXTT8=
EXTT9=
EXTT10=
EXTT11=
PLAYORDER=
